<svg width="15" height="15" viewBox="0 0 15 15" fill="none" xmlns="http://www.w3.org/2000/svg">
<path fill-rule="evenodd" clip-rule="evenodd" d="M12.284 13.4895L12.2347 0.5919C12.2341 0.429052 12.2814 0.290447 12.3766 0.176088C12.4719 0.0617284 12.5879 0.00428711 12.7246 0.00376473L13.709 3.58579e-06C13.8457 -0.000518795 13.9621 0.0560345 14.0583 0.169663C14.1544 0.283291 14.2028 0.42153 14.2034 0.584378L14.2527 13.482C14.2533 13.6448 14.206 13.7834 14.1107 13.8978C14.0155 14.0122 13.8995 14.0696 13.7627 14.0701L12.7784 14.0739C12.6417 14.0744 12.5252 14.0179 12.4291 13.9042C12.333 13.7906 12.2846 13.6524 12.284 13.4895ZM10.8057 2.19921H0.469814C0.339311 2.19921 0.228382 2.15136 0.137029 2.05566C0.0456766 1.95996 0 1.84375 0 1.70703V0.722655C0 0.585937 0.0456766 0.469726 0.137029 0.374023C0.228382 0.27832 0.339311 0.230469 0.469814 0.230469H10.8057C10.9362 0.230469 11.0472 0.27832 11.1385 0.374023C11.2299 0.469726 11.2755 0.585937 11.2755 0.722655V1.70703C11.2755 1.84375 11.2299 1.95996 11.1385 2.05566C11.0472 2.15136 10.9362 2.19921 10.8057 2.19921ZM7 13.4766V12.4922C7 12.3555 7.04568 12.2393 7.13703 12.1436C7.22838 12.0479 7.33931 12 7.46981 12H10.2887C10.4192 12 10.5301 12.0479 10.6215 12.1436C10.7128 12.2393 10.7585 12.3555 10.7585 12.4922V13.4766C10.7585 13.6133 10.7128 13.7295 10.6215 13.8252C10.5301 13.9209 10.4192 13.9687 10.2887 13.9687H7.46981C7.33931 13.9687 7.22838 13.9209 7.13703 13.8252C7.04568 13.7295 7 13.6133 7 13.4766ZM2 5.5V4.5C2 4.36111 2.06563 4.24306 2.19687 4.14583C2.32812 4.04861 2.4875 4 2.675 4H10.325C10.5125 4 10.6719 4.04861 10.8031 4.14583C10.9344 4.24306 11 4.36111 11 4.5V5.5C11 5.63889 10.9344 5.75694 10.8031 5.85417C10.6719 5.95139 10.5125 6 10.325 6H2.675C2.4875 6 2.32812 5.95139 2.19687 5.85417C2.06563 5.75694 2 5.63889 2 5.5ZM5 9.47664V8.49226C5 8.35554 5.04568 8.23933 5.13703 8.14363C5.22838 8.04793 5.33931 8.00008 5.46981 8.00008H10.7944C10.9249 8.00008 11.0358 8.04793 11.1272 8.14363C11.2185 8.23933 11.2642 8.35554 11.2642 8.49226V9.47664C11.2642 9.61335 11.2185 9.72956 11.1272 9.82527C11.0358 9.92097 10.9249 9.96882 10.7944 9.96882H5.46981C5.33931 9.96882 5.22838 9.92097 5.13703 9.82527C5.04568 9.72956 5 9.61335 5 9.47664Z" fill="#09315B"/>
</svg>
